<svg id="Icons" height="512" viewBox="0 0 74 74" width="512" xmlns="http://www.w3.org/2000/svg"><path d="m37 15.455c-7.572 0-15.619-2.358-15.619-6.727s8.047-6.728 15.619-6.728 15.62 2.358 15.62 6.728-8.048 6.727-15.62 6.727zm0-11.455c-7.8 0-13.619 2.5-13.619 4.728s5.824 4.727 13.619 4.727 13.62-2.5 13.62-4.727-5.82-4.728-13.62-4.728z"/><path d="m37 23.562c-7.572 0-15.619-2.357-15.619-6.728a1 1 0 0 1 2 0c0 2.232 5.824 4.728 13.619 4.728s13.62-2.5 13.62-4.728a1 1 0 1 1 2 0c0 4.371-8.048 6.728-15.62 6.728z"/><path d="m51.62 17.834a1 1 0 0 1 -1-1v-8.106a1 1 0 0 1 2 0v8.106a1 1 0 0 1 -1 1z"/><path d="m22.381 17.834a1 1 0 0 1 -1-1v-8.106a1 1 0 0 1 2 0v8.106a1 1 0 0 1 -1 1z"/><path d="m37 31.806c-7.572 0-15.619-2.358-15.619-6.727a1 1 0 0 1 2 0c0 2.231 5.824 4.727 13.619 4.727s13.62-2.5 13.62-4.727a1 1 0 0 1 2 0c0 4.369-8.048 6.727-15.62 6.727z"/><path d="m51.62 26.079a1 1 0 0 1 -1-1v-8.107a1 1 0 1 1 2 0v8.107a1 1 0 0 1 -1 1z"/><path d="m22.381 26.079a1 1 0 0 1 -1-1v-8.107a1 1 0 1 1 2 0v8.107a1 1 0 0 1 -1 1z"/><path d="m37 40.05c-7.572 0-15.619-2.358-15.619-6.727a1 1 0 0 1 2 0c0 2.231 5.824 4.727 13.619 4.727s13.62-2.5 13.62-4.727a1 1 0 0 1 2 0c0 4.369-8.048 6.727-15.62 6.727z"/><path d="m51.62 34.323a1 1 0 0 1 -1-1v-8.108a1 1 0 1 1 2 0v8.108a1 1 0 0 1 -1 1z"/><path d="m22.381 34.323a1 1 0 0 1 -1-1v-8.108a1 1 0 0 1 2 0v8.108a1 1 0 0 1 -1 1z"/><path d="m37 51.138a1 1 0 0 1 -1-1v-11.088a1 1 0 0 1 2 0v11.088a1 1 0 0 1 -1 1z"/><path d="m57.646 61.6a1 1 0 0 1 -1-1v-7.863a1.6 1.6 0 0 0 -1.6-1.595h-36.1a1.579 1.579 0 0 0 -1.6 1.595v7.863a1 1 0 0 1 -2 0v-7.863a3.6 3.6 0 0 1 3.6-3.595h36.1a3.6 3.6 0 0 1 3.6 3.595v7.863a1 1 0 0 1 -1 1z"/><path d="m66.535 72h-17.777a1 1 0 0 1 -1-1v-12.768a1 1 0 0 1 1-1h4.574a1 1 0 0 1 .685.272l2.22 2.086h10.3a1 1 0 0 1 1 1v10.41a1 1 0 0 1 -1.002 1zm-16.777-2h15.777v-8.41h-9.694a1 1 0 0 1 -.685-.271l-2.22-2.087h-3.178z"/><path d="m25.242 72h-17.777a1 1 0 0 1 -1-1v-12.768a1 1 0 0 1 1-1h4.574a1 1 0 0 1 .685.272l2.219 2.086h10.3a1 1 0 0 1 1 1v10.41a1 1 0 0 1 -1.001 1zm-16.777-2h15.777v-8.41h-9.695a1 1 0 0 1 -.685-.271l-2.219-2.087h-3.178z"/></svg>