<?xml version="1.0" encoding="iso-8859-1"?>
<!-- Generator: Adobe Illustrator 18.0.0, SVG Export Plug-In . SVG Version: 6.00 Build 0)  -->
<!DOCTYPE svg PUBLIC "-//W3C//DTD SVG 1.1//EN" "http://www.w3.org/Graphics/SVG/1.1/DTD/svg11.dtd">
<svg version="1.1" id="Capa_1" xmlns="http://www.w3.org/2000/svg" xmlns:xlink="http://www.w3.org/1999/xlink" x="0px" y="0px"
	 viewBox="0 0 60.334 60.334" style="enable-background:new 0 0 60.334 60.334;" xml:space="preserve">
<path d="M59.526,26.587l-6.229-1.223c-0.608-2.95-1.759-5.712-3.428-8.228l3.531-5.256c0.267-0.397,0.215-0.927-0.123-1.265
	L49.66,6.998c-0.339-0.339-0.868-0.39-1.265-0.123l-5.27,3.541c-2.521-1.66-5.287-2.8-8.241-3.397l-1.219-6.211
	C33.574,0.339,33.163,0,32.685,0h-5.116c-0.478,0-0.89,0.338-0.981,0.808l-1.223,6.229c-2.951,0.608-5.713,1.759-8.228,3.428
	l-5.256-3.531c-0.396-0.266-0.925-0.215-1.265,0.123l-3.617,3.617c-0.338,0.338-0.39,0.868-0.123,1.265l3.54,5.27
	c-1.659,2.521-2.8,5.288-3.397,8.242l-6.211,1.219C0.338,26.76,0,27.172,0,27.65v5.116c0,0.478,0.338,0.889,0.808,0.981l6.229,1.223
	c0.607,2.95,1.758,5.712,3.427,8.228l-3.53,5.256c-0.267,0.397-0.215,0.927,0.123,1.265l3.617,3.617
	c0.338,0.338,0.868,0.39,1.265,0.123l5.27-3.541c2.521,1.66,5.287,2.8,8.241,3.397l1.22,6.212c0.093,0.469,0.504,0.807,0.981,0.807
	h5.115c0.479,0,0.89-0.338,0.981-0.808l1.223-6.229c2.951-0.608,5.713-1.758,8.228-3.427l5.256,3.531
	c0.396,0.267,0.928,0.215,1.265-0.123l3.617-3.617c0.338-0.338,0.39-0.868,0.123-1.265l-3.54-5.27
	c1.659-2.521,2.8-5.288,3.397-8.241l6.211-1.219c0.47-0.092,0.808-0.503,0.808-0.981v-5.115
	C60.334,27.091,59.996,26.679,59.526,26.587z M58.334,31.861l-6.069,1.191c-0.407,0.08-0.723,0.403-0.793,0.812
	c-0.542,3.144-1.746,6.066-3.58,8.686c-0.237,0.338-0.241,0.788-0.011,1.131l3.458,5.147l-2.453,2.454l-5.136-3.45
	c-0.345-0.231-0.797-0.226-1.134,0.013c-2.612,1.843-5.53,3.058-8.672,3.612c-0.407,0.072-0.728,0.387-0.808,0.792l-1.194,6.084
	h-3.47l-1.191-6.07c-0.08-0.407-0.403-0.722-0.812-0.792c-3.145-0.542-6.066-1.747-8.686-3.58c-0.338-0.236-0.787-0.241-1.131-0.011
	l-5.147,3.458l-2.453-2.454l3.449-5.135c0.231-0.344,0.226-0.795-0.013-1.134c-1.844-2.614-3.06-5.532-3.611-8.671
	c-0.072-0.407-0.387-0.729-0.793-0.808L2,31.943v-3.47l6.069-1.191c0.407-0.08,0.723-0.403,0.793-0.812
	c0.542-3.144,1.746-6.066,3.58-8.686c0.237-0.338,0.241-0.788,0.011-1.131l-3.458-5.147l2.453-2.454l5.136,3.45
	c0.345,0.231,0.796,0.226,1.134-0.013c2.612-1.843,5.529-3.058,8.672-3.612c0.407-0.072,0.728-0.387,0.808-0.792L28.392,2h3.47
	l1.191,6.069c0.08,0.407,0.403,0.723,0.812,0.793c3.145,0.542,6.067,1.747,8.686,3.58c0.339,0.236,0.787,0.241,1.131,0.011
	l5.147-3.458l2.454,2.454l-3.45,5.135c-0.231,0.344-0.226,0.795,0.013,1.134c1.844,2.614,3.059,5.531,3.613,8.672
	c0.071,0.407,0.386,0.728,0.792,0.808l6.084,1.194V31.861z M30.167,14.598c-8.585,0-15.569,6.984-15.569,15.569
	c0,8.585,6.984,15.569,15.569,15.569s15.569-6.984,15.569-15.569C45.736,21.582,38.752,14.598,30.167,14.598z M30.167,43.736
	c-7.482,0-13.569-6.087-13.569-13.569s6.087-13.569,13.569-13.569s13.569,6.087,13.569,13.569S37.649,43.736,30.167,43.736z"/>
<g>
</g>
<g>
</g>
<g>
</g>
<g>
</g>
<g>
</g>
<g>
</g>
<g>
</g>
<g>
</g>
<g>
</g>
<g>
</g>
<g>
</g>
<g>
</g>
<g>
</g>
<g>
</g>
<g>
</g>
</svg>
