<?xml version="1.0"?>
<svg xmlns="http://www.w3.org/2000/svg" xmlns:xlink="http://www.w3.org/1999/xlink" xmlns:svgjs="http://svgjs.com/svgjs" version="1.1" width="512" height="512" x="0" y="0" viewBox="0 0 512.008 512.008" style="enable-background:new 0 0 512 512" xml:space="preserve" class=""><g><g xmlns="http://www.w3.org/2000/svg"><path d="m437.291 194.995c-48.424-48.423-112.806-75.091-181.287-75.091s-132.863 26.668-181.287 75.091c-48.423 48.424-75.091 112.805-74.713 181.287v15.548h170.383v-31.096h-139.134c2.024-29.566 9.786-57.578 22.166-82.94l38.263 22.092 15.548-26.93-38.275-22.098c16.221-24.112 36.973-44.932 61.031-61.226l22.17 38.399 26.93-15.549-22.212-38.472c25.53-12.562 53.768-20.427 83.582-22.469v44.496h31.096v-44.496c29.814 2.042 58.052 9.906 83.582 22.469l-22.212 38.472 26.93 15.549 22.17-38.399c24.058 16.295 44.811 37.115 61.031 61.227l-38.275 22.098 15.549 26.93 38.263-22.091c12.38 25.362 20.141 53.374 22.166 82.94h-139.432v31.096l170.68.032v-15.548c.378-68.516-26.29-132.897-74.713-181.321z" fill="#03a9f4" data-original="#000000" style="" class=""/><path d="m328.996 258.326-88.498 97.401-.255 36.158 31.096.219.171-24.268 80.502-88.598z" fill="#03a9f4" data-original="#000000" style="" class=""/></g></g></svg>
